<svg xmlns="http://www.w3.org/2000/svg" width="805" height="600"><rect width="805" height="600" x="0" y="0" fill="#FFFFFF" id="background"/><g transform="translate(10,10)" id="viz"><g><rect x="78" y="346.7433768633658" height="107.05529924327402" width="5" fill="black"><title>information: 20</title></rect><rect x="156" y="370.6892031855818" height="128.46635909192878" width="5" fill="black"><title>visualization: 24</title></rect><rect x="546" y="124.90296927126296" height="48.174884659473335" width="5" fill="black"><title>abstract: 9</title></rect><rect x="624" y="92.50843013594425" height="69.58594450812814" width="5" fill="black"><title>datum: 13</title></rect><rect x="390" y="68.7480487930575" height="26.763824810818505" width="5" fill="black"><title>visual: 5</title></rect><rect x="468" y="43.60517186780626" height="37.46935473514591" width="5" fill="black"><title>representation: 7</title></rect><rect x="312" y="158.59371955960134" height="21.411059848654816" width="5" fill="black"><title>interactive: 4</title></rect><rect x="234" y="247.0758423140706" height="16.058294886491012" width="5" fill="black"><title>use: 3</title></rect><rect x="234" y="319.3793512960399" height="26.763824810818562" width="5" fill="black"><title>computer: 5</title></rect><rect x="312" y="342.84510638387445" height="16.05829488649107" width="5" fill="black"><title>graphic: 3</title></rect><rect x="234" y="352.4840265974696" height="10.70552992432738" width="5" fill="black"><title>infovis: 2</title></rect><rect x="702" y="120.70711572768303" height="10.70552992432738" width="5" fill="black"><title>reinforce: 2</title></rect><rect x="0" y="222.53242007680876" height="10.70552992432738" width="5" fill="black"><title>human: 2</title></rect><rect x="780" y="217.1796277992964" height="21.4110598486549" width="5" fill="black"><title>cognition: 4</title></rect><rect x="0" y="0.000059156782397388604" height="10.705529924327411" width="5" fill="black"><title>enable: 2</title></rect><rect x="78" y="0" height="10.705529924327411" width="5" fill="black"><title>user: 2</title></rect><rect x="702" y="171.6197543605111" height="10.70552992432738" width="5" fill="black"><title>amplify: 2</title></rect><rect x="0" y="354.81920219081655" height="21.411059848654816" width="5" fill="black"><title>map: 4</title></rect><rect x="78" y="318.9914665240998" height="21.411059848654816" width="5" fill="black"><title>data: 4</title></rect><rect x="0" y="382.5711125300826" height="10.70552992432738" width="5" fill="black"><title>structure: 2</title></rect><rect x="0" y="100.49433380461842" height="10.705529924327408" width="5" fill="black"><title>geographic: 2</title></rect><rect x="234" y="369.5304070124082" height="10.70552992432738" width="5" fill="black"><title>technique: 2</title></rect><rect x="0" y="445.20144251188015" height="10.705529924327323" width="5" fill="black"><title>contrast: 2</title></rect><rect x="78" y="477.1859070121896" height="10.705529924327436" width="5" fill="black"><title>scientific: 2</title></rect><rect x="312" y="345.5963021758649" height="10.70552992432738" width="5" fill="black"><title>science: 2</title></rect><rect x="0" y="67.30639313377621" height="10.705529924327408" width="5" fill="black"><title>sensory: 2</title></rect><rect x="0" y="134.5870946344956" height="10.70552992432738" width="5" fill="black"><title>represent: 2</title></rect><rect x="0" y="462.24782292681874" height="10.705529924327436" width="5" fill="black"><title>take: 2</title></rect><rect x="78" y="494.23228742712826" height="10.70552992432738" width="5" fill="black"><title>advantage: 2</title></rect><rect x="78" y="460.13952659725106" height="10.70552992432738" width="5" fill="black"><title>screen: 2</title></rect><rect x="156" y="353.6428227706433" height="10.705529924327323" width="5" fill="black"><title>space: 2</title></rect><rect x="0" y="117.54071421955702" height="10.705529924327365" width="5" fill="black"><title>kind: 2</title></rect><rect x="234" y="409.11003523709206" height="10.70552992432738" width="5" fill="black"><title>coordinate: 2</title></rect><rect x="0" y="292.268364656314" height="10.70552992432738" width="5" fill="black"><title>unstructured: 2</title></rect><rect x="0" y="479.2942033417574" height="10.70552992432738" width="5" fill="black"><title>criterion: 2</title></rect><rect x="78" y="511.2786678420668" height="10.705529924327323" width="5" fill="black"><title>record: 2</title></rect><rect x="0" y="497.34928527101295" height="10.70552992432738" width="5" fill="black"><title>spatial: 2</title></rect><rect x="78" y="528.3250482570054" height="10.705529924327266" width="5" fill="black"><title>temporal: 2</title></rect></g><g class="links" fill="none" stroke-opacity="1"><path d="M83,400.27102648500284C119.5,400.27102648500284,119.5,424.2168528072188,156,424.2168528072188" stroke="#17becf" style="stroke-width: 107.055; mix-blend-mode: multiply;"><title>information → visualization: 20</title></path><path d="M551,148.9904116009996C587.5,148.9904116009996,587.5,138.00693231433573,624,138.00693231433573" stroke="#1f77b4" style="stroke-width: 48.1749; mix-blend-mode: multiply;"><title>abstract → datum: 9</title></path><path d="M395,82.12996119846675C431.5,82.12996119846675,431.5,67.69261419754291,468,67.69261419754291" stroke="#cccccc" style="stroke-width: 26.7638; mix-blend-mode: multiply;"><title>visual → representation: 5</title></path><path d="M317,169.29924948392878C353.5,169.29924948392878,353.5,79.45357871738493,390,79.45357871738493" stroke="#cccccc" style="stroke-width: 21.4111; mix-blend-mode: multiply;"><title>interactive → visual: 4</title></path><path d="M239,255.1049897573162C275.5,255.1049897573162,275.5,166.62286700284693,312,166.62286700284693" stroke="#cccccc" style="stroke-width: 16.0583; mix-blend-mode: multiply;"><title>use → interactive: 3</title></path><path d="M239,327.4084987392855C275.5,327.4084987392855,275.5,350.87425382712,312,350.87425382712" stroke="#2ca02c" style="stroke-width: 16.0583; mix-blend-mode: multiply;"><title>computer → graphic: 3</title></path><path d="M161,397.4530279964003C197.5,397.4530279964003,197.5,357.83679155963335,234,357.83679155963335" stroke="#cccccc" style="stroke-width: 10.7055; mix-blend-mode: multiply;"><title>visualization → infovis: 2</title></path><path d="M473,48.95793682996995C509.5,48.95793682996995,509.5,130.25573423342664,546,130.25573423342664" stroke="#cccccc" style="stroke-width: 10.7055; mix-blend-mode: multiply;"><title>representation → abstract: 2</title></path><path d="M629,97.86119509810793C665.5,97.86119509810793,665.5,126.05988068984672,702,126.05988068984672" stroke="#8c564b" style="stroke-width: 10.7055; mix-blend-mode: multiply;"><title>datum → reinforce: 2</title></path><path d="M5,227.8851850389725C392.5,227.8851850389725,392.5,233.2379226857875,780,233.2379226857875" stroke="#bcbd22" style="stroke-width: 10.7055; mix-blend-mode: multiply;"><title>human → cognition: 2</title></path><path d="M5,5.352824118946103C41.5,5.352824118946103,41.5,5.352764962163706,78,5.352764962163706" stroke="#e377c2" style="stroke-width: 10.7055; mix-blend-mode: multiply;"><title>enable → user: 2</title></path><path d="M629,108.56672502243535C665.5,108.56672502243535,665.5,176.97251932267483,702,176.97251932267483" stroke="#8c564b" style="stroke-width: 10.7055; mix-blend-mode: multiply;"><title>datum → amplify: 2</title></path><path d="M707,176.97251932267483C743.5,176.97251932267483,743.5,222.53239276146013,780,222.53239276146013" stroke="#ff7f0e" style="stroke-width: 10.7055; mix-blend-mode: multiply;"><title>amplify → cognition: 2</title></path><path d="M5,360.1719671529803C41.5,360.1719671529803,41.5,335.0497614105909,78,335.0497614105909" stroke="#cccccc" style="stroke-width: 10.7055; mix-blend-mode: multiply;"><title>map → data: 2</title></path><path d="M5,387.9238774922463C41.5,387.9238774922463,41.5,352.0961418255295,78,352.0961418255295" stroke="#cccccc" style="stroke-width: 10.7055; mix-blend-mode: multiply;"><title>structure → information: 2</title></path><path d="M5,105.84709876678211C314.5,105.84709876678211,314.5,97.86119509810793,624,97.86119509810793" stroke="#7f7f7f" style="stroke-width: 10.7055; mix-blend-mode: multiply;"><title>geographic → datum: 2</title></path><path d="M161,418.86408784505505C197.5,418.86408784505505,197.5,374.88317197457195,234,374.88317197457195" stroke="#cccccc" style="stroke-width: 10.7055; mix-blend-mode: multiply;"><title>visualization → technique: 2</title></path><path d="M5,450.5542074740439C41.5,450.5542074740439,41.5,482.53867197435335,78,482.53867197435335" stroke="#d62728" style="stroke-width: 10.7055; mix-blend-mode: multiply;"><title>contrast → scientific: 2</title></path><path d="M83,482.53867197435335C119.5,482.53867197435335,119.5,483.09726739101956,156,483.09726739101956" stroke="#cccccc" style="stroke-width: 10.7055; mix-blend-mode: multiply;"><title>scientific → visualization: 2</title></path><path d="M239,340.7904111446947C275.5,340.7904111446947,275.5,350.9490671380286,312,350.9490671380286" stroke="#2ca02c" style="stroke-width: 10.7055; mix-blend-mode: multiply;"><title>computer → science: 2</title></path><path d="M161,376.04196814774554C197.5,376.04196814774554,197.5,252.42860727623432,234,252.42860727623432" stroke="#cccccc" style="stroke-width: 10.7055; mix-blend-mode: multiply;"><title>visualization → use: 2</title></path><path d="M5,72.6591580959399C236.5,72.6591580959399,236.5,48.95793682996995,468,48.95793682996995" stroke="#cccccc" style="stroke-width: 10.7055; mix-blend-mode: multiply;"><title>sensory → representation: 2</title></path><path d="M161,386.7474980720729C197.5,386.7474980720729,197.5,324.73211625820363,234,324.73211625820363" stroke="#cccccc" style="stroke-width: 10.7055; mix-blend-mode: multiply;"><title>visualization → computer: 2</title></path><path d="M5,139.9398595966593C275.5,139.9398595966593,275.5,140.96126415775404,546,140.96126415775404" stroke="#cccccc" style="stroke-width: 10.7055; mix-blend-mode: multiply;"><title>represent → abstract: 2</title></path><path d="M5,467.6005878889825C41.5,467.6005878889825,41.5,499.58505238929195,78,499.58505238929195" stroke="#cccccc" style="stroke-width: 10.7055; mix-blend-mode: multiply;"><title>take → advantage: 2</title></path><path d="M161 493.8027973153469 L166 493.8027973153469 A15.3527649621637 15.3527649621637 0 0 1 181.3527649621637 509.15556227751057 L181.3527649621637 514.1555622775106 A15.3527649621637 15.3527649621637 0 0 1 166 529.5083272396744 L151 529.5083272396744 A15.3527649621637 15.3527649621637 0 0 1 135.6472350378363 514.1555622775106 L135.6472350378363 509.15556227751057 A15.3527649621637 15.3527649621637 0 0 1 151 493.8027973153469 L156 493.8027973153469" stroke="#cccccc" style="stroke-width: 10.7055; mix-blend-mode: multiply;"><title>visualization → visualization: 2</title></path><path d="M5,370.8774970773077C41.5,370.8774970773077,41.5,465.49229155941475,78,465.49229155941475" stroke="#cccccc" style="stroke-width: 10.7055; mix-blend-mode: multiply;"><title>map → screen: 2</title></path><path d="M83,465.49229155941475C119.5,465.49229155941475,119.5,358.99558773280705,156,358.99558773280705" stroke="#cccccc" style="stroke-width: 10.7055; mix-blend-mode: multiply;"><title>screen → space: 2</title></path><path d="M161,408.1585579207277C353.5,408.1585579207277,353.5,151.66679408208148,546,151.66679408208148" stroke="#cccccc" style="stroke-width: 10.7055; mix-blend-mode: multiply;"><title>visualization → abstract: 2</title></path><path d="M5,122.8934791817207C314.5,122.8934791817207,314.5,108.56672502243535,624,108.56672502243535" stroke="#cccccc" style="stroke-width: 10.7055; mix-blend-mode: multiply;"><title>kind → datum: 2</title></path><path d="M161,358.99558773280705C197.5,358.99558773280705,197.5,414.4628001992558,234,414.4628001992558" stroke="#cccccc" style="stroke-width: 10.7055; mix-blend-mode: multiply;"><title>space → coordinate: 2</title></path><path d="M5,297.62112961847777C41.5,297.62112961847777,41.5,324.34423148626354,78,324.34423148626354" stroke="#cccccc" style="stroke-width: 10.7055; mix-blend-mode: multiply;"><title>unstructured → data: 2</title></path><path d="M5,484.6469683039211C41.5,484.6469683039211,41.5,516.6314328042305,78,516.6314328042305" stroke="#9467bd" style="stroke-width: 10.7055; mix-blend-mode: multiply;"><title>criterion → record: 2</title></path><path d="M5,502.7020502331767C41.5,502.7020502331767,41.5,533.6778132191691,78,533.6778132191691" stroke="#cccccc" style="stroke-width: 10.7055; mix-blend-mode: multiply;"><title>spatial → temporal: 2</title></path></g><g><text x="87" y="400.27102648500284" text-anchor="start"><tspan alignment-baseline="middle" style="font-family: Arial, sans-serif; font-size: 10px; fill: black; font-weight: bold;">information</tspan></text><text x="165" y="434.9223827315462" text-anchor="start"><tspan alignment-baseline="middle" style="font-family: Arial, sans-serif; font-size: 10px; fill: black; font-weight: bold;">visualization</tspan></text><text x="542" y="148.99041160099964" text-anchor="end"><tspan alignment-baseline="middle" style="font-family: Arial, sans-serif; font-size: 10px; fill: black; font-weight: bold;">abstract</tspan></text><text x="620" y="127.30140239000832" text-anchor="end"><tspan alignment-baseline="middle" style="font-family: Arial, sans-serif; font-size: 10px; fill: black; font-weight: bold;">datum</tspan></text><text x="399" y="82.12996119846676" text-anchor="start"><tspan alignment-baseline="middle" style="font-family: Arial, sans-serif; font-size: 10px; fill: black; font-weight: bold;">visual</tspan></text><text x="464" y="62.33984923537922" text-anchor="end"><tspan alignment-baseline="middle" style="font-family: Arial, sans-serif; font-size: 10px; fill: black; font-weight: bold;">representation</tspan></text><text x="321" y="169.29924948392875" text-anchor="start"><tspan alignment-baseline="middle" style="font-family: Arial, sans-serif; font-size: 10px; fill: black; font-weight: bold;">interactive</tspan></text><text x="243" y="255.1049897573161" text-anchor="start"><tspan alignment-baseline="middle" style="font-family: Arial, sans-serif; font-size: 10px; fill: black; font-weight: bold;">use</tspan></text><text x="243" y="332.76126370144914" text-anchor="start"><tspan alignment-baseline="middle" style="font-family: Arial, sans-serif; font-size: 10px; fill: black; font-weight: bold;">computer</tspan></text><text x="321" y="350.87425382712" text-anchor="start"><tspan alignment-baseline="middle" style="font-family: Arial, sans-serif; font-size: 10px; fill: black; font-weight: bold;">graphic</tspan></text><text x="243" y="357.8367915596333" text-anchor="start"><tspan alignment-baseline="middle" style="font-family: Arial, sans-serif; font-size: 10px; fill: black; font-weight: bold;">infovis</tspan></text><text x="698" y="126.05988068984672" text-anchor="end"><tspan alignment-baseline="middle" style="font-family: Arial, sans-serif; font-size: 10px; fill: black; font-weight: bold;">reinforce</tspan></text><text x="9" y="227.88518503897245" text-anchor="start"><tspan alignment-baseline="middle" style="font-family: Arial, sans-serif; font-size: 10px; fill: black; font-weight: bold;">human</tspan></text><text x="776" y="227.88515772362388" text-anchor="end"><tspan alignment-baseline="middle" style="font-family: Arial, sans-serif; font-size: 10px; fill: black; font-weight: bold;">cognition</tspan></text><text x="9" y="5.352824118946103" text-anchor="start"><tspan alignment-baseline="middle" style="font-family: Arial, sans-serif; font-size: 10px; fill: black; font-weight: bold;">enable</tspan></text><text x="87" y="5.352764962163706" text-anchor="start"><tspan alignment-baseline="middle" style="font-family: Arial, sans-serif; font-size: 10px; fill: black; font-weight: bold;">user</tspan></text><text x="698" y="176.9725193226748" text-anchor="end"><tspan alignment-baseline="middle" style="font-family: Arial, sans-serif; font-size: 10px; fill: black; font-weight: bold;">amplify</tspan></text><text x="9" y="365.52473211514393" text-anchor="start"><tspan alignment-baseline="middle" style="font-family: Arial, sans-serif; font-size: 10px; fill: black; font-weight: bold;">map</tspan></text><text x="87" y="329.69699644842717" text-anchor="start"><tspan alignment-baseline="middle" style="font-family: Arial, sans-serif; font-size: 10px; fill: black; font-weight: bold;">data</tspan></text><text x="9" y="387.9238774922463" text-anchor="start"><tspan alignment-baseline="middle" style="font-family: Arial, sans-serif; font-size: 10px; fill: black; font-weight: bold;">structure</tspan></text><text x="9" y="105.84709876678212" text-anchor="start"><tspan alignment-baseline="middle" style="font-family: Arial, sans-serif; font-size: 10px; fill: black; font-weight: bold;">geographic</tspan></text><text x="243" y="374.8831719745719" text-anchor="start"><tspan alignment-baseline="middle" style="font-family: Arial, sans-serif; font-size: 10px; fill: black; font-weight: bold;">technique</tspan></text><text x="9" y="450.5542074740438" text-anchor="start"><tspan alignment-baseline="middle" style="font-family: Arial, sans-serif; font-size: 10px; fill: black; font-weight: bold;">contrast</tspan></text><text x="87" y="482.5386719743533" text-anchor="start"><tspan alignment-baseline="middle" style="font-family: Arial, sans-serif; font-size: 10px; fill: black; font-weight: bold;">scientific</tspan></text><text x="321" y="350.94906713802857" text-anchor="start"><tspan alignment-baseline="middle" style="font-family: Arial, sans-serif; font-size: 10px; fill: black; font-weight: bold;">science</tspan></text><text x="9" y="72.65915809593992" text-anchor="start"><tspan alignment-baseline="middle" style="font-family: Arial, sans-serif; font-size: 10px; fill: black; font-weight: bold;">sensory</tspan></text><text x="9" y="139.9398595966593" text-anchor="start"><tspan alignment-baseline="middle" style="font-family: Arial, sans-serif; font-size: 10px; fill: black; font-weight: bold;">represent</tspan></text><text x="9" y="467.60058788898243" text-anchor="start"><tspan alignment-baseline="middle" style="font-family: Arial, sans-serif; font-size: 10px; fill: black; font-weight: bold;">take</tspan></text><text x="87" y="499.58505238929195" text-anchor="start"><tspan alignment-baseline="middle" style="font-family: Arial, sans-serif; font-size: 10px; fill: black; font-weight: bold;">advantage</tspan></text><text x="87" y="465.49229155941475" text-anchor="start"><tspan alignment-baseline="middle" style="font-family: Arial, sans-serif; font-size: 10px; fill: black; font-weight: bold;">screen</tspan></text><text x="165" y="358.99558773280694" text-anchor="start"><tspan alignment-baseline="middle" style="font-family: Arial, sans-serif; font-size: 10px; fill: black; font-weight: bold;">space</tspan></text><text x="9" y="122.89347918172069" text-anchor="start"><tspan alignment-baseline="middle" style="font-family: Arial, sans-serif; font-size: 10px; fill: black; font-weight: bold;">kind</tspan></text><text x="243" y="414.46280019925575" text-anchor="start"><tspan alignment-baseline="middle" style="font-family: Arial, sans-serif; font-size: 10px; fill: black; font-weight: bold;">coordinate</tspan></text><text x="9" y="297.6211296184777" text-anchor="start"><tspan alignment-baseline="middle" style="font-family: Arial, sans-serif; font-size: 10px; fill: black; font-weight: bold;">unstructured</tspan></text><text x="9" y="484.6469683039211" text-anchor="start"><tspan alignment-baseline="middle" style="font-family: Arial, sans-serif; font-size: 10px; fill: black; font-weight: bold;">criterion</tspan></text><text x="87" y="516.6314328042305" text-anchor="start"><tspan alignment-baseline="middle" style="font-family: Arial, sans-serif; font-size: 10px; fill: black; font-weight: bold;">record</tspan></text><text x="9" y="502.70205023317664" text-anchor="start"><tspan alignment-baseline="middle" style="font-family: Arial, sans-serif; font-size: 10px; fill: black; font-weight: bold;">spatial</tspan></text><text x="87" y="533.677813219169" text-anchor="start"><tspan alignment-baseline="middle" style="font-family: Arial, sans-serif; font-size: 10px; fill: black; font-weight: bold;">temporal</tspan></text></g></g></svg>